<?xml version="1.0"?>
<svg xmlns="http://www.w3.org/2000/svg" id="Layer_1" data-name="Layer 1" viewBox="0 0 512 512" width="512" height="512"><title>Cleaning Products</title><path d="M147.324,496H353.483c3.314,0,5.517-2.8,5.517-6.115V272.27c0-45.041-7.6-95.27-20.817-133.27h2.282c3.314,0,5.535-2.618,5.535-5.932v-29.2c0-3.313-2.221-5.87-5.535-5.87H325V77h39.676A6.477,6.477,0,0,0,371,70.779V22.115A6.384,6.384,0,0,0,364.676,16H194.79A5.924,5.924,0,0,0,189,22.115V26H178.864c-12.954,0-22.723,8.756-22.723,20.5S165.91,67,178.864,67H189v3.779A6.018,6.018,0,0,0,194.79,77h34.1c-.886,11-5.682,38.557-30.888,50.824a5.952,5.952,0,0,0,2.631,11.314,5.855,5.855,0,0,0,2.621-.51C234.786,123.283,240.106,90,240.942,77H283V98H267.4c-3.314,0-6.4,2.557-6.4,5.87v29.2c0,3.314,3.088,5.932,6.4,5.932H272v24.334a45.208,45.208,0,0,1-32.491,42.993A138.06,138.06,0,0,0,168.994,254.8,135.5,135.5,0,0,0,141,337.378V489.885A6.384,6.384,0,0,0,147.324,496Zm31.54-441c-6.414,0-10.723-3.356-10.723-8.5S172.45,38,178.864,38H189V55ZM201,28H359V65H201Zm94,49h18V98H295Zm-22,33h61v17H273ZM153,337.378a123.568,123.568,0,0,1,25.509-75.316,125.874,125.874,0,0,1,64.29-44.219c24.169-7.074,41.2-29.489,41.2-54.509V139h41.447C339.082,176,347,226.89,347,272.27V484H153Z"/><path d="M313.83,301h-83.8C209.153,301,192,317.5,192,338.369V447.375c0,3.314,2.857,5.625,6.17,5.625H313.83c3.313,0,6.17-2.311,6.17-5.625V306.513C320,303.2,317.143,301,313.83,301ZM308,441H204V338.369C204,324.112,215.77,313,230.027,313H308Z"/><path d="M220.315,380a6,6,0,0,0,6,6h59.37a6,6,0,0,0,0-12h-59.37A6,6,0,0,0,220.315,380Z"/><path d="M285.685,400H238a6,6,0,0,0,0,12h47.69a6,6,0,0,0,0-12Z"/></svg>
