<svg xmlns="http://www.w3.org/2000/svg" width="11.83" height="11.83" viewBox="0 0 11.83 11.83"><defs><style>.a{fill:#299f26;}</style></defs><g transform="translate(0 0)"><g transform="translate(0 0)"><path class="a" d="M17.415,23.33a5.915,5.915,0,1,1,5.915-5.915A5.91,5.91,0,0,1,17.415,23.33Zm0-11.134a5.219,5.219,0,1,0,5.219,5.219A5.257,5.257,0,0,0,17.415,12.2Z" transform="translate(-11.5 -11.5)"/><g transform="translate(3.792 4.471)"><path class="a" d="M20.812,20.134a.418.418,0,0,1-.278-.07l-1.322-1.392a.311.311,0,0,0-.348,0L17.541,20a.344.344,0,1,1-.487-.487l1.322-1.322a.968.968,0,0,1,1.322,0l1.322,1.322a.336.336,0,0,1,0,.487C21.021,20.065,20.882,20.134,20.812,20.134Z" transform="translate(-16.95 -17.925)"/></g></g></g></svg>