<svg xmlns="http://www.w3.org/2000/svg" width="8.123" height="8.765" viewBox="0 0 8.123 8.765"><defs><style>.a{fill:#fff;stroke:#fff;}</style></defs><g transform="translate(-16.938 -15.668)"><path class="a" d="M17.211,22.365A1.2,1.2,0,0,1,16,21.154V15.811A1.2,1.2,0,0,1,17.211,14.6a2.08,2.08,0,0,1,.641.142l4.63,2.707a1.324,1.324,0,0,1,.641,1.069,1.175,1.175,0,0,1-.641,1.069l-4.63,2.707C17.638,22.293,17.425,22.365,17.211,22.365Zm0-7.123a.487.487,0,0,0-.5.5v5.343a.51.51,0,0,0,.784.427l4.63-2.707a.586.586,0,0,0,.285-.427.443.443,0,0,0-.285-.427L17.5,15.241Z" transform="translate(1.438 1.568)"/></g></svg>