<svg xmlns="http://www.w3.org/2000/svg" xmlns:xlink="http://www.w3.org/1999/xlink" width="61.866" height="61.866" viewBox="0 0 61.866 61.866"><defs><style>.a{fill:#fff;}.b{fill:#231815;}.c{filter:url(#a);}</style><filter id="a" x="0" y="0" width="61.866" height="61.866" filterUnits="userSpaceOnUse"><feOffset dx="5" dy="5" input="SourceAlpha"/><feGaussianBlur stdDeviation="5" result="b"/><feFlood flood-opacity="0.161"/><feComposite operator="in" in2="b"/><feComposite in="SourceGraphic"/></filter></defs><g transform="translate(10 10)"><g transform="translate(8.194 10.914)"><g class="c" transform="matrix(1, 0, 0, 1, -18.19, -20.91)"><rect class="a" width="31.866" height="31.866" rx="15.933" transform="translate(10 10)"/></g><g transform="translate(0 0)"><path class="b" d="M18.1,25.576a.673.673,0,0,1-.448-.112l-3.7-3.7a1.624,1.624,0,0,1,0-2.352l3.7-3.7a.554.554,0,1,1,.784.784l-3.7,3.7a.541.541,0,0,0,0,.784l3.7,3.7a.541.541,0,0,1,0,.784A.412.412,0,0,1,18.1,25.576Z" transform="translate(-13.45 -15.55)"/><g transform="translate(0.728 4.425)"><path class="b" d="M28.1,20.62H14.66a.56.56,0,0,1,0-1.12H28.1a.529.529,0,0,1,.56.56A.6.6,0,0,1,28.1,20.62Z" transform="translate(-14.1 -19.5)"/></g></g></g></g></svg>