<svg xmlns="http://www.w3.org/2000/svg" width="18" height="14.4" viewBox="0 0 18 14.4"><defs><style>.a{fill:#e6765c;stroke:#e6765c;}</style></defs><g transform="translate(-11 -12.8)"><path class="a" d="M20,23.7a3,3,0,1,1,3-3A2.946,2.946,0,0,1,20,23.7Zm0-5a2,2,0,1,0,2,2A2.006,2.006,0,0,0,20,18.7Z"/><path class="a" d="M27,26.7H13a1.538,1.538,0,0,1-1.5-1.5V17A1.538,1.538,0,0,1,13,15.5h2.4a.472.472,0,0,0,.5-.5v-.2a1.538,1.538,0,0,1,1.5-1.5h5.3a1.538,1.538,0,0,1,1.5,1.5V15a.472.472,0,0,0,.5.5H27A1.538,1.538,0,0,1,28.5,17v8.2A1.538,1.538,0,0,1,27,26.7ZM13,16.5a.472.472,0,0,0-.5.5v8.2a.472.472,0,0,0,.5.5H27a.472.472,0,0,0,.5-.5V17a.472.472,0,0,0-.5-.5H24.6A1.538,1.538,0,0,1,23.1,15v-.2a.472.472,0,0,0-.5-.5H17.3a.472.472,0,0,0-.5.5V15a1.538,1.538,0,0,1-1.5,1.5Z"/></g></svg>