<svg xmlns="http://www.w3.org/2000/svg" xmlns:xlink="http://www.w3.org/1999/xlink" width="65" height="65" viewBox="0 0 65 65"><defs><style>.a{fill:#fff;}.b{fill:#e6765c;stroke:#e6765c;}.c{filter:url(#a);}</style><filter id="a" x="0" y="0" width="65" height="65" filterUnits="userSpaceOnUse"><feOffset dx="5" dy="5" input="SourceAlpha"/><feGaussianBlur stdDeviation="5" result="b"/><feFlood flood-opacity="0.161"/><feComposite operator="in" in2="b"/><feComposite in="SourceGraphic"/></filter></defs><g transform="translate(-13 -6)"><g class="c" transform="matrix(1, 0, 0, 1, 13, 6)"><rect class="a" width="35" height="35" rx="17.5" transform="translate(10 10)"/></g><g transform="translate(20.5 13.7)"><path class="b" d="M20,23.7a3,3,0,1,1,3-3A2.946,2.946,0,0,1,20,23.7Zm0-5a2,2,0,1,0,2,2A2.006,2.006,0,0,0,20,18.7Z"/><path class="b" d="M27,26.7H13a1.538,1.538,0,0,1-1.5-1.5V17A1.538,1.538,0,0,1,13,15.5h2.4a.472.472,0,0,0,.5-.5v-.2a1.538,1.538,0,0,1,1.5-1.5h5.3a1.538,1.538,0,0,1,1.5,1.5V15a.472.472,0,0,0,.5.5H27A1.538,1.538,0,0,1,28.5,17v8.2A1.538,1.538,0,0,1,27,26.7ZM13,16.5a.472.472,0,0,0-.5.5v8.2a.472.472,0,0,0,.5.5H27a.472.472,0,0,0,.5-.5V17a.472.472,0,0,0-.5-.5H24.6A1.538,1.538,0,0,1,23.1,15v-.2a.472.472,0,0,0-.5-.5H17.3a.472.472,0,0,0-.5.5V15a1.538,1.538,0,0,1-1.5,1.5Z"/></g></g></svg>