<svg xmlns="http://www.w3.org/2000/svg" width="26.401" height="25.029" viewBox="0 0 26.401 25.029"><defs><style>.a{fill:#05cfff;stroke:#05cfff;stroke-width:0.75px;}</style></defs><g transform="translate(0.375 0.375)"><path class="a" d="M140.629,85.6a.521.521,0,0,0-.35-.223c-.731,0-7.027-.254-7.027-7.568a.413.413,0,1,0-.827,0c0,7.313-6.3,7.568-7,7.568a.361.361,0,0,0-.254.1c-.064.032-.1.1-.127.127a.472.472,0,0,0,0,.413.441.441,0,0,0,.382.223h.032c.731,0,7,.254,7,7.568a.413.413,0,1,0,.827,0c0-7.282,6.264-7.568,7-7.568a.485.485,0,0,0,.382-.223A.391.391,0,0,0,140.629,85.6Zm-7.79,5.088a7.258,7.258,0,0,0-4.96-4.9,7.258,7.258,0,0,0,4.96-4.9,7.258,7.258,0,0,0,4.96,4.9A7.258,7.258,0,0,0,132.838,90.692Z" transform="translate(-115.063 -71.932)"/><path class="a" d="M54.872,14.007a.428.428,0,0,0,.413-.445.421.421,0,0,0-.413-.413,3.767,3.767,0,0,1-3.816-4.134.413.413,0,1,0-.827,0,3.767,3.767,0,0,1-3.816,4.134h-.032a.415.415,0,0,0-.382.413.421.421,0,0,0,.413.413,3.753,3.753,0,0,1,3.816,4.134.421.421,0,0,0,.413.413.367.367,0,0,0,.382-.382,3.767,3.767,0,0,1,3.816-4.134h.032Zm-4.261,1.812a4.264,4.264,0,0,0-2.289-2.258A4.278,4.278,0,0,0,50.611,11.3,4.264,4.264,0,0,0,52.9,13.561,4.278,4.278,0,0,0,50.611,15.819Z" transform="translate(-42.343 -8.601)"/><path class="a" d="M8.872,193.548a3.767,3.767,0,0,1-3.816-4.134.413.413,0,0,0-.827,0,3.767,3.767,0,0,1-3.816,4.134H.382a.415.415,0,0,0-.382.413.421.421,0,0,0,.413.413,3.753,3.753,0,0,1,3.816,4.134.421.421,0,0,0,.413.413c.191.064.382-.127.382-.382a3.767,3.767,0,0,1,3.816-4.134h.032a.428.428,0,0,0,.413-.445A.421.421,0,0,0,8.872,193.548Zm-4.261,2.7a4.37,4.37,0,0,0-2.289-2.258,4.278,4.278,0,0,0,2.289-2.258A4.264,4.264,0,0,0,6.9,193.993,4.278,4.278,0,0,0,4.611,196.251Z" transform="translate(0 -174.66)"/></g></svg>