<svg xmlns="http://www.w3.org/2000/svg" viewBox="0 0 18.5 22.464"><defs><style>.a{fill:#231815;}</style></defs><g transform="translate(-13 -11.5)"><g transform="translate(13 11.5)"><path class="a" d="M28.2,33.964H16.3a3.272,3.272,0,0,1-3.3-3.3V14.8a3.272,3.272,0,0,1,3.3-3.3H28.2a3.272,3.272,0,0,1,3.3,3.3V30.661A3.272,3.272,0,0,1,28.2,33.964ZM16.3,12.821A2.032,2.032,0,0,0,14.321,14.8V30.661A2.032,2.032,0,0,0,16.3,32.643H28.2a2.032,2.032,0,0,0,1.982-1.982V14.8A2.032,2.032,0,0,0,28.2,12.821Z" transform="translate(-13 -11.5)"/><g transform="translate(4.625 5.286)"><path class="a" d="M25.089,16.821H17.161a.661.661,0,0,1,0-1.321h7.929a.661.661,0,0,1,0,1.321Z" transform="translate(-16.5 -15.5)"/><g transform="translate(0 5.286)"><path class="a" d="M25.089,20.821H17.161a.661.661,0,1,1,0-1.321h7.929a.661.661,0,1,1,0,1.321Z" transform="translate(-16.5 -19.5)"/></g><g transform="translate(0 10.572)"><path class="a" d="M25.089,24.821H17.161a.661.661,0,0,1,0-1.321h7.929a.661.661,0,0,1,0,1.321Z" transform="translate(-16.5 -23.5)"/></g></g></g></g></svg>