<svg xmlns="http://www.w3.org/2000/svg" viewBox="0 0 8.412 11"><defs><style>.a{fill:#231815;}</style></defs><g transform="translate(-13.5 -11.5)"><g transform="translate(13.5 11.5)"><path class="a" d="M20.294,22.5H15.118A1.6,1.6,0,0,1,13.5,20.882V13.118A1.6,1.6,0,0,1,15.118,11.5h2.329a1.357,1.357,0,0,1,.712.259l3.494,3.494a.973.973,0,0,1,.259.712v4.918A1.6,1.6,0,0,1,20.294,22.5ZM15.118,12.147a1,1,0,0,0-.971.971v7.765a1,1,0,0,0,.971.971h5.176a1,1,0,0,0,.971-.971V15.965c0-.065-.065-.194-.065-.259l-3.494-3.494c-.065-.065-.129-.065-.259-.065Z" transform="translate(-13.5 -11.5)"/><g transform="translate(3.882 0.324)"><path class="a" d="M20.147,12v2.588a1,1,0,0,0,.971.971h2.588v.647H21.118A1.6,1.6,0,0,1,19.5,14.588V12Z" transform="translate(-19.5 -12)"/></g><g transform="translate(1.941 8.735)"><path class="a" d="M20.706,25.647H16.824a.324.324,0,0,1,0-.647h3.882a.324.324,0,0,1,0,.647Z" transform="translate(-16.5 -25)"/></g><g transform="translate(1.941 7.118)"><path class="a" d="M20.706,23.147H16.824a.324.324,0,0,1,0-.647h3.882a.324.324,0,0,1,0,.647Z" transform="translate(-16.5 -22.5)"/></g><g transform="translate(1.941 5.5)"><path class="a" d="M20.706,20.647H16.824a.324.324,0,0,1,0-.647h3.882a.324.324,0,0,1,0,.647Z" transform="translate(-16.5 -20)"/></g></g></g></svg>