<svg xmlns="http://www.w3.org/2000/svg" width="31.254" height="32.053" viewBox="0 0 31.254 32.053"><defs><style>.a{fill:#34a021;}</style></defs><g transform="translate(0 0)"><path class="a" d="M28.416,64.594H27.6V58.855a.831.831,0,0,0-.244-.589L22.755,53.66a2.431,2.431,0,0,0-1.731-.717,2.482,2.482,0,0,0-.4.035V49.812a2.447,2.447,0,1,0-4.895,0v9.736a.831.831,0,0,0,.244.589l3.419,3.42v1.038H18.74a.833.833,0,0,0-.833.833v4.8h1.665V66.259h8.011v3.969h1.665v-4.8A.833.833,0,0,0,28.416,64.594Zm-2.477,0H21.058V63.212a.831.831,0,0,0-.244-.589L17.395,59.2V49.812a.782.782,0,1,1,1.565,0v4.267a2.443,2.443,0,0,0,.334,3.042L20.8,58.629l1.12,1.12L23.1,58.572l-1.12-1.12-1.508-1.508a.782.782,0,0,1,0-1.106.8.8,0,0,1,1.106,0L25.939,59.2Z" transform="translate(-15.73 -38.175)"/><path class="a" d="M90.709,47.365a2.45,2.45,0,0,0-2.447,2.447v3.166a2.485,2.485,0,0,0-.4-.035,2.431,2.431,0,0,0-1.731.717l-4.606,4.606a.832.832,0,0,0-.244.589v5.74H80.47a.833.833,0,0,0-.833.833v4.8H81.3V66.259h8.012v3.969h1.665v-4.8a.832.832,0,0,0-.833-.833h-.653V63.556l3.419-3.42a.832.832,0,0,0,.244-.589V49.812A2.449,2.449,0,0,0,90.709,47.365ZM91.491,59.2l-3.419,3.42a.832.832,0,0,0-.244.589v1.383H82.947V59.2l4.362-4.362a.8.8,0,0,1,1.106,0,.782.782,0,0,1,0,1.106l-2.628,2.628,1.177,1.177,2.628-2.628a2.444,2.444,0,0,0,.335-3.041V49.812a.782.782,0,1,1,1.564,0V59.2Z" transform="translate(-61.903 -38.175)"/><path class="a" d="M61.653,24.768c0-4.755-5.684-10.074-5.926-10.3a.833.833,0,0,0-1.131,0c-.242.224-5.927,5.543-5.927,10.3,0,4.218,2.1,6.853,5.66,7.2v2.454h1.665V31.972C59.554,31.622,61.653,28.986,61.653,24.768Zm-7.325,5.525c-2.615-.322-3.995-2.212-3.995-5.525a5.911,5.911,0,0,1,.282-1.716l3.713,3.712Zm0-5.884-3.023-3.023a21.487,21.487,0,0,1,3.023-4.241Zm1.665-7.264a21.5,21.5,0,0,1,3.023,4.241l-3.023,3.023Zm0,13.148V26.764l3.713-3.713a5.914,5.914,0,0,1,.282,1.717C59.988,28.082,58.609,29.971,55.993,30.293Z" transform="translate(-39.528 -14.248)"/><rect class="a" width="1.665" height="2.062" transform="translate(14.8 21.323)"/></g></svg>