<svg xmlns="http://www.w3.org/2000/svg" viewBox="0 0 11.813 8.082"><g transform="translate(-9.2 -8.5)"><g transform="translate(9.2 8.5)"><g transform="translate(0 1.181)"><path d="M11.133,21.057a.956.956,0,0,1-.933-.933V18.944a.56.56,0,0,1,.062-.311l.746-1.865A2.182,2.182,0,0,1,13.06,15.4H14.3l-.311.622H13.06a1.533,1.533,0,0,0-1.43.995l-.746,1.865v1.181a.294.294,0,0,0,.311.311v.684Z" transform="translate(-10.2 -15.4)"/></g><g transform="translate(0.622 4.974)"><path d="M12.754,24.609a1.554,1.554,0,1,1,1.554-1.554A1.539,1.539,0,0,1,12.754,24.609Zm0-2.487a.933.933,0,1,0,.933.933A.956.956,0,0,0,12.754,22.122Z" transform="translate(-11.2 -21.5)"/></g><g transform="translate(3.73)"><path d="M22.728,19.717h.622a.294.294,0,0,0,.311-.311V15.054a.956.956,0,0,0-.933-.933H17.754a.956.956,0,0,0-.933.933v4.663h3.419v.622h-3.73a.294.294,0,0,1-.311-.311V15.054A1.539,1.539,0,0,1,17.754,13.5h4.974a1.539,1.539,0,0,1,1.554,1.554v4.352a.956.956,0,0,1-.933.933h-.622Z" transform="translate(-16.2 -13.5)"/></g><g transform="translate(7.46 4.974)"><path d="M23.754,24.609a1.554,1.554,0,1,1,1.554-1.554A1.539,1.539,0,0,1,23.754,24.609Zm0-2.487a.933.933,0,1,0,.933.933A.956.956,0,0,0,23.754,22.122Z" transform="translate(-22.2 -21.5)"/></g><g transform="translate(3.419 6.217)"><path d="M15.7,23.5h.622a.311.311,0,0,1,0,.622H15.7V23.5Z" transform="translate(-15.7 -23.5)"/></g></g></g></svg>