<svg xmlns="http://www.w3.org/2000/svg" width="27.334" height="28.455" viewBox="0 0 27.334 28.455"><defs><style>.a{fill:#fff;stroke:#fff;stroke-width:2px;}</style></defs><g transform="translate(-212.908 -558.247)"><g transform="translate(249.748 578.121) rotate(135)"><path class="a" d="M18,26.5a.6.6,0,0,1-.4-.1.483.483,0,0,1,0-.7l4.6-4.6a1.45,1.45,0,0,0,0-2.1l-4.6-4.6a.495.495,0,1,1,.7-.7l4.6,4.6a2.41,2.41,0,0,1,.7,1.8,2.875,2.875,0,0,1-.7,1.8l-4.6,4.6Z"/></g><g transform="translate(203.402 566.829) rotate(-45)"><path class="a" d="M18,26.5a.6.6,0,0,1-.4-.1.483.483,0,0,1,0-.7l4.6-4.6a1.45,1.45,0,0,0,0-2.1l-4.6-4.6a.495.495,0,1,1,.7-.7l4.6,4.6a2.41,2.41,0,0,1,.7,1.8,2.875,2.875,0,0,1-.7,1.8l-4.6,4.6Z"/></g></g></svg>