<svg xmlns="http://www.w3.org/2000/svg" width="12.72" height="12.72" viewBox="0 0 12.72 12.72"><defs><style>.a,.d{fill:none;}.a{stroke:#299f26;}.b{fill:#299f26;}.c{stroke:none;}</style></defs><g transform="translate(0 0)"><g class="a" transform="translate(0 0)"><circle class="c" cx="6.36" cy="6.36" r="6.36"/><circle class="d" cx="6.36" cy="6.36" r="5.86"/></g><g transform="translate(2.544 4.24)"><g transform="translate(0 0)"><path class="b" d="M14.787,19.222A5.555,5.555,0,0,1,11.141,17.4a.718.718,0,0,1,0-.975A5.555,5.555,0,0,1,14.787,14.6a5.555,5.555,0,0,1,3.647,1.823.718.718,0,0,1,0,.975A5.555,5.555,0,0,1,14.787,19.222Zm0-4.24a5.226,5.226,0,0,0-3.35,1.7.238.238,0,0,0,0,.382,5.226,5.226,0,0,0,3.35,1.7,5.226,5.226,0,0,0,3.35-1.7.238.238,0,0,0,0-.382A5.226,5.226,0,0,0,14.787,14.982Z" transform="translate(-10.95 -14.6)"/></g><g transform="translate(2.777 1.23)"><path class="b" d="M18.56,19.62a1.06,1.06,0,1,1,1.06-1.06A1.05,1.05,0,0,1,18.56,19.62Zm0-1.7a.636.636,0,1,0,.636.636A.652.652,0,0,0,18.56,17.924Z" transform="translate(-17.5 -17.5)"/></g></g></g></svg>