<svg xmlns="http://www.w3.org/2000/svg" width="15.732" height="20.573" viewBox="0 0 15.732 20.573"><defs><style>.a{fill:#279824;}</style></defs><g transform="translate(0 0)"><g transform="translate(0 0)"><path class="a" d="M26.207,32.073H16.525A3,3,0,0,1,13.5,29.048V14.525A3,3,0,0,1,16.525,11.5h4.357a2.538,2.538,0,0,1,1.331.484l6.535,6.535a1.82,1.82,0,0,1,.484,1.331v9.2A3,3,0,0,1,26.207,32.073ZM16.525,12.71a1.861,1.861,0,0,0-1.815,1.815V29.048a1.861,1.861,0,0,0,1.815,1.815h9.681a1.861,1.861,0,0,0,1.815-1.815v-9.2c0-.121-.121-.363-.121-.484l-6.535-6.535c-.121-.121-.242-.121-.484-.121Z" transform="translate(-13.5 -11.5)"/><g transform="translate(7.261 0.605)"><path class="a" d="M20.71,12v4.841a1.861,1.861,0,0,0,1.815,1.815h4.841v1.21H22.525A3,3,0,0,1,19.5,16.841V12Z" transform="translate(-19.5 -12)"/></g><g transform="translate(3.631 16.337)"><path class="a" d="M24.366,26.21H17.105a.605.605,0,1,1,0-1.21h7.261a.605.605,0,1,1,0,1.21Z" transform="translate(-16.5 -25)"/></g><g transform="translate(3.631 13.312)"><path class="a" d="M24.366,23.71H17.105a.605.605,0,0,1,0-1.21h7.261a.605.605,0,0,1,0,1.21Z" transform="translate(-16.5 -22.5)"/></g><g transform="translate(3.631 10.287)"><path class="a" d="M24.366,21.21H17.105a.605.605,0,1,1,0-1.21h7.261a.605.605,0,1,1,0,1.21Z" transform="translate(-16.5 -20)"/></g></g></g></svg>