<svg xmlns="http://www.w3.org/2000/svg" xmlns:xlink="http://www.w3.org/1999/xlink" width="97" height="97" viewBox="0 0 97 97"><defs><style>.a{fill:url(#a);}.b{fill:#fff;}.c{filter:url(#b);}</style><linearGradient id="a" x1="0.096" y1="0.038" x2="0.5" y2="1" gradientUnits="objectBoundingBox"><stop offset="0" stop-color="#ffbd46"/><stop offset="1" stop-color="#ff755f"/></linearGradient><filter id="b" x="0" y="0" width="97" height="97" filterUnits="userSpaceOnUse"><feOffset dy="9" input="SourceAlpha"/><feGaussianBlur stdDeviation="9" result="c"/><feFlood flood-color="#151524" flood-opacity="0.294"/><feComposite operator="in" in2="c"/><feComposite in="SourceGraphic"/></filter></defs><g transform="translate(-275 -248)"><g transform="translate(160 1)"><g class="c" transform="matrix(1, 0, 0, 1, 115, 247)"><rect class="a" width="43" height="43" rx="5" transform="translate(27 18)"/></g><path class="b" d="M15.487,15c-.667-4.11-2.241-7-4.073-7s-3.406,2.886-4.073,7ZM7,19.414a28.847,28.847,0,0,0,.152,2.945h8.528a28.846,28.846,0,0,0,.152-2.945,28.847,28.847,0,0,0-.152-2.945H7.147A28.847,28.847,0,0,0,7,19.414ZM21.939,15a11.438,11.438,0,0,0-7.272-6.517A15.533,15.533,0,0,1,16.969,15ZM8.155,8.479A11.43,11.43,0,0,0,.888,15h4.97a15.47,15.47,0,0,1,2.3-6.517Zm14.276,7.99H17.153c.1.966.152,1.956.152,2.945s-.055,1.979-.152,2.945h5.274a11.315,11.315,0,0,0,.4-2.945A11.513,11.513,0,0,0,22.431,16.468ZM5.523,19.414c0-.989.055-1.979.152-2.945H.4a11.158,11.158,0,0,0,0,5.891H5.67C5.578,21.393,5.523,20.4,5.523,19.414Zm1.818,4.418c.667,4.11,2.241,7,4.073,7s3.406-2.886,4.073-7Zm7.331,6.517a11.449,11.449,0,0,0,7.272-6.517h-4.97A15.533,15.533,0,0,1,14.672,30.349ZM.888,23.832A11.438,11.438,0,0,0,8.16,30.349a15.533,15.533,0,0,1-2.3-6.517H.888Z" transform="translate(152.539 267.586)"/></g></g></svg>