<?xml version="1.0" standalone="no"?>
<!DOCTYPE svg PUBLIC "-//W3C//DTD SVG 20010904//EN"
 "http://www.w3.org/TR/2001/REC-SVG-20010904/DTD/svg10.dtd">
<svg version="1.0" xmlns="http://www.w3.org/2000/svg"
 width="72.000000pt" height="72.000000pt" viewBox="0 0 72.000000 72.000000"
 preserveAspectRatio="xMidYMid meet">
<metadata>
Created by potrace 1.15, written by Peter Selinger 2001-2017
</metadata>
<g transform="translate(0.000000,72.000000) scale(0.100000,-0.100000)"
fill="#000000" stroke="none">
<path d="M441 628 l-73 -31 55 -17 c70 -22 151 -68 212 -122 l49 -43 -29 50
c-94 162 -112 190 -125 192 -8 1 -48 -12 -89 -29z"/>
<path d="M70 484 c-40 -69 -71 -126 -69 -128 2 -1 37 -29 78 -61 44 -35 72
-51 67 -40 -19 51 -27 171 -16 253 6 47 14 90 16 94 3 4 3 8 0 8 -2 0 -37 -57
-76 -126z"/>
<path d="M43 283 c5 -9 130 -227 132 -230 1 -2 38 12 83 30 74 30 94 47 54 47
-27 0 -143 62 -208 111 -36 27 -63 46 -61 42z"/>
</g>
</svg>
