<svg xmlns="http://www.w3.org/2000/svg" width="13.045" height="10.25" viewBox="0 0 13.045 10.25"><defs><style>.a{fill:#62b40b;}</style></defs><g transform="translate(0 -54.817)"><g transform="translate(0 54.817)"><path class="a" d="M1.4,201a1.348,1.348,0,0,0-.99.408,1.406,1.406,0,0,0,0,1.98,1.348,1.348,0,0,0,.99.408,1.348,1.348,0,0,0,.99-.408,1.406,1.406,0,0,0,0-1.98A1.348,1.348,0,0,0,1.4,201Z" transform="translate(0 -197.272)"/><path class="a" d="M1.4,54.817a1.348,1.348,0,0,0-.99.408,1.406,1.406,0,0,0,0,1.98,1.348,1.348,0,0,0,.99.408,1.348,1.348,0,0,0,.99-.408,1.406,1.406,0,0,0,0-1.98A1.348,1.348,0,0,0,1.4,54.817Z" transform="translate(-0.003 -54.817)"/><path class="a" d="M1.4,347.18a1.348,1.348,0,0,0-.99.407,1.406,1.406,0,0,0,0,1.98,1.348,1.348,0,0,0,.99.408,1.348,1.348,0,0,0,.99-.408,1.406,1.406,0,0,0,0-1.98A1.348,1.348,0,0,0,1.4,347.18Z" transform="translate(-0.003 -339.725)"/><path class="a" d="M155.427,73.161a.225.225,0,0,0-.164-.069h-8.852a.236.236,0,0,0-.233.233v1.4a.236.236,0,0,0,.233.233h8.852a.236.236,0,0,0,.233-.233v-1.4A.224.224,0,0,0,155.427,73.161Z" transform="translate(-142.451 -72.626)"/><path class="a" d="M155.263,219.271h-8.852a.236.236,0,0,0-.233.233v1.4a.236.236,0,0,0,.233.233h8.852a.236.236,0,0,0,.233-.233v-1.4a.236.236,0,0,0-.233-.233Z" transform="translate(-142.451 -215.078)"/><path class="a" d="M155.263,365.447h-8.852a.236.236,0,0,0-.233.233v1.4a.236.236,0,0,0,.233.233h8.852a.236.236,0,0,0,.233-.233v-1.4a.236.236,0,0,0-.233-.233Z" transform="translate(-142.451 -357.527)"/></g></g></svg>