<svg xmlns="http://www.w3.org/2000/svg" viewBox="0 0 8.591 12"><defs><style>.a{fill:#231815;}</style></defs><g transform="translate(-13.576 -11)"><g transform="translate(13.576 11)"><path class="a" d="M17.859,23a1.04,1.04,0,0,1-.867-.533l-2.8-4.8a4.44,4.44,0,0,1,1.4-6A4.5,4.5,0,0,1,17.859,11a4.184,4.184,0,0,1,3.733,2.2,4.245,4.245,0,0,1,0,4.267v.067l-2.867,5A1.14,1.14,0,0,1,17.859,23Zm0-11.333a4.018,4.018,0,0,0-1.933.533,3.707,3.707,0,0,0-1.133,5.067l2.8,4.867a.278.278,0,0,0,.533,0L20.992,17.2v-.067a3.633,3.633,0,0,0-3.133-5.467Z" transform="translate(-13.576 -11)"/><g transform="translate(2.616 2.667)"><path class="a" d="M19.167,18.333a1.667,1.667,0,1,1,1.667-1.667A1.65,1.65,0,0,1,19.167,18.333Zm0-2.667a1,1,0,1,0,1,1A1.025,1.025,0,0,0,19.167,15.667Z" transform="translate(-17.5 -15)"/></g></g></g></svg>