<svg xmlns="http://www.w3.org/2000/svg" width="10.741" height="10.067" viewBox="0 0 10.741 10.067"><defs><style>.a{fill:#fff;stroke:#fff;stroke-width:0.3px;}</style></defs><g transform="translate(0.15 0.15)"><path class="a" d="M.168,3.042H1.1a2.5,2.5,0,0,0,.237.571l-.661.661a.169.169,0,0,0,0,.238l.714.715a.169.169,0,0,0,.238,0l.661-.661a2.5,2.5,0,0,0,.57.237v.934a.168.168,0,0,0,.168.168h1.01a.168.168,0,0,0,.168-.168V4.8a2.5,2.5,0,0,0,.57-.237l.661.661a.173.173,0,0,0,.238,0l.715-.715a.169.169,0,0,0,0-.238l-.661-.661a2.5,2.5,0,0,0,.237-.571H6.9a.168.168,0,0,0,.168-.168V1.863A.168.168,0,0,0,6.9,1.695H5.97a2.505,2.505,0,0,0-.237-.571L6.394.463a.169.169,0,0,0,0-.238L5.68-.489a.168.168,0,0,0-.238,0L4.78.172a2.51,2.51,0,0,0-.57-.237V-1a.168.168,0,0,0-.168-.168H3.031A.168.168,0,0,0,2.863-1v.934a2.51,2.51,0,0,0-.57.237L1.631-.489a.173.173,0,0,0-.238,0L.678.225a.169.169,0,0,0,0,.238l.661.661a2.505,2.505,0,0,0-.237.571H.168A.168.168,0,0,0,0,1.863v1.01A.168.168,0,0,0,.168,3.042Zm.168-1.01h.9A.168.168,0,0,0,1.4,1.9a2.167,2.167,0,0,1,.3-.71A.168.168,0,0,0,1.671.98L1.036.344l.476-.476L2.147.5a.168.168,0,0,0,.21.023,2.17,2.17,0,0,1,.71-.3A.169.169,0,0,0,3.2.066v-.9h.674v.9a.169.169,0,0,0,.132.165,2.17,2.17,0,0,1,.71.3A.168.168,0,0,0,4.925.5l.635-.636.476.476L5.4.98a.168.168,0,0,0-.023.21,2.166,2.166,0,0,1,.295.71.169.169,0,0,0,.165.132h.9v.674h-.9a.168.168,0,0,0-.165.132,2.164,2.164,0,0,1-.295.709.169.169,0,0,0,.023.21l.636.635-.476.477-.635-.636a.169.169,0,0,0-.21-.023,2.165,2.165,0,0,1-.709.3.168.168,0,0,0-.133.165v.9H3.2v-.9a.168.168,0,0,0-.133-.165,2.165,2.165,0,0,1-.709-.3.169.169,0,0,0-.21.023l-.635.636-.476-.476.635-.635a.168.168,0,0,0,.023-.21,2.167,2.167,0,0,1-.3-.71.168.168,0,0,0-.165-.132h-.9Zm0,0" transform="translate(0 1.168)"/><path class="a" d="M131.347,131.526A1.347,1.347,0,1,0,130,130.179,1.347,1.347,0,0,0,131.347,131.526Zm0-2.358a1.01,1.01,0,1,1-1.01,1.01A1.011,1.011,0,0,1,131.347,129.169Zm0,0" transform="translate(-127.811 -126.643)"/><path class="a" d="M101.852,102.537A1.852,1.852,0,1,0,100,100.684,1.852,1.852,0,0,0,101.852,102.537Zm0-3.368a1.516,1.516,0,1,1-1.516,1.516A1.516,1.516,0,0,1,101.852,99.169Zm0,0" transform="translate(-98.316 -97.148)"/><path class="a" d="M9.6,281.863v-1.347a.168.168,0,0,0-.168-.168H9.094V279a.168.168,0,0,0-.168-.168H7.41a.168.168,0,0,0-.168.168v1.347H6.4a.168.168,0,0,0-.168.168v1.347H.842a.843.843,0,0,0-.842.842v.337a.843.843,0,0,0,.842.842H9.6a.843.843,0,0,0,.842-.842v-.337A.843.843,0,0,0,9.6,281.863Zm-.337,0H8.083v-1.179H9.262Zm-1.684-2.694H8.757v1.179H7.578Zm-1.01,1.516H7.747v1.179H6.568Zm3.536,2.358a.505.505,0,0,1-.505.505H.842a.505.505,0,0,1-.505-.505v-.337a.505.505,0,0,1,.505-.505H9.6a.505.505,0,0,1,.505.505Zm0,0" transform="translate(0 -274.117)"/><path class="a" d="M280.505,488.832a.505.505,0,1,0,.505.505A.505.505,0,0,0,280.505,488.832Zm0,.674a.168.168,0,1,1,.168-.168A.168.168,0,0,1,280.505,489.506Zm0,0" transform="translate(-275.285 -480.58)"/><path class="a" d="M180.505,488.832a.505.505,0,1,0,.505.505A.505.505,0,0,0,180.505,488.832Zm0,.674a.168.168,0,1,1,.168-.168A.168.168,0,0,1,180.505,489.506Zm0,0" transform="translate(-176.969 -480.58)"/><path class="a" d="M380.505,488.832a.505.505,0,1,0,.505.505A.505.505,0,0,0,380.505,488.832Zm0,.674a.168.168,0,1,1,.168-.168A.168.168,0,0,1,380.505,489.506Zm0,0" transform="translate(-373.601 -480.58)"/><path class="a" d="M80.505,488.832a.505.505,0,1,0,.505.505A.505.505,0,0,0,80.505,488.832Zm0,.674a.168.168,0,1,1,.168-.168A.168.168,0,0,1,80.505,489.506Zm0,0" transform="translate(-78.653 -480.58)"/><path class="a" d="M480.505,488.832a.505.505,0,1,0,.505.505A.505.505,0,0,0,480.505,488.832Zm0,.674a.168.168,0,1,1,.168-.168A.168.168,0,0,1,480.505,489.506Zm0,0" transform="translate(-471.917 -480.58)"/></g></svg>