<svg xmlns="http://www.w3.org/2000/svg" width="16" height="14.223" viewBox="0 0 16 14.223"><defs><style>.a{fill:#62b40b;}</style></defs><path class="a" d="M8,0A3.5,3.5,0,0,0,4.5,3.5c0,1.563,2.288,4.411,3.164,5.445a.438.438,0,0,0,.672,0C9.213,7.911,11.5,5.063,11.5,3.5A3.5,3.5,0,0,0,8,0ZM.559,6A.889.889,0,0,0,0,6.824v6.954a.445.445,0,0,0,.609.413l3.835-1.746V5.97a8.412,8.412,0,0,1-.59-1.289ZM8,9.991A1.327,1.327,0,0,1,6.986,9.52C6.44,8.876,5.859,8.142,5.333,7.389v5.056l5.333,1.778V7.389c-.526.753-1.106,1.487-1.653,2.131A1.328,1.328,0,0,1,8,9.991Zm7.391-5.514L11.556,6.222v8l3.886-1.554A.889.889,0,0,0,16,11.843V4.89a.445.445,0,0,0-.609-.413Z" transform="translate(0 0)"/></svg>