<?xml version="1.0" encoding="utf-8"?>
<!-- Generator: Adobe Illustrator 23.0.0, SVG Export Plug-In . SVG Version: 6.00 Build 0)  -->
<svg version="1.1" id="Layer_1" xmlns="http://www.w3.org/2000/svg" xmlns:xlink="http://www.w3.org/1999/xlink" x="0px" y="0px"
	 viewBox="0 0 350.1 311" style="enable-background:new 0 0 350.1 311;" xml:space="preserve">
<style type="text/css">
	.st0{fill:#299E26;}
</style>
<g>
	<path class="st0" d="M302,103.4h-0.1l-1.2,0.3l11,47.7l0.3-0.1l1.5-0.3c1.3-0.3,2.1-1.1,2.5-2.3s0.2-3.2-0.4-5.9l-8.1-35.2
		c-0.4-1.5-1-2.7-2-3.5C304.5,103.3,303.4,103.1,302,103.4z"/>
	<path class="st0" d="M349.6,154.3l-17.2-74.4c-2.2-9.4-11.6-15.3-21-13.1l-7.4,1.7c-5.5-8.2-11.9-15.8-19-23
		C255.6,16.2,216.6,0,175,0C133.5,0,94.4,16.2,65,45.5C40.8,69.8,25.6,100.6,21,134l-7.4,1.7c-9.4,2.2-15.3,11.6-13.1,21l17.2,74.4
		c1.1,4.6,3.8,8.4,7.8,10.9c2.8,1.8,6,2.7,9.2,2.7c1.3,0,2.7-0.2,4-0.5l7.4-1.7c5.5,8.2,11.9,15.8,19,23
		c29.4,29.4,68.4,45.5,110,45.5c41.5,0,80.6-16.2,110-45.5c24.2-24.2,39.5-55.1,44.1-88.5l7.4-1.7
		C345.9,173.1,351.8,163.7,349.6,154.3z M316.7,102.6c4.1,3.6,7.3,10.5,9.6,20.6c2.1,9.2,2.2,16.4,0.3,21.7
		c-1.9,5.3-5.4,8.4-10.3,9.6l-4.2,1l-14,3.2c-0.5,0.1-0.9,0.1-1.1-0.1c-0.3-0.2-0.5-0.7-0.7-1.5c0-0.1,0-0.1-0.1-0.2
		c0-0.4,0-0.8,0-1.2c0-0.3,0-0.7,0-1c0.1-0.2,0.3-0.3,0.5-0.5c1.1-1,1.5-2.1,1.2-3.4l-3.2-14c-0.9-5.7-2.2-11.2-3.8-16.6l-2.6-11.1
		c-0.2-0.4-0.7-0.7-1.5-0.7c-0.1,0-0.2,0-0.3,0c-0.6-1.5-1.3-2.9-2-4.3c0-0.1,0.1-0.1,0.1-0.2c0.2-0.3,1-0.7,2.2-0.9l13.3-3.1
		l3.3-0.8C308.2,97.7,312.6,98.9,316.7,102.6z M67.7,211.9l-7.4,1.7c-0.6,0.1-1,0.1-1.2-0.1c-0.2-0.2-0.5-1-0.8-2.2
		c-0.2-0.8,0.1-1.5,0.8-2c1.1-0.8,1.6-1.7,1.4-2.6l-9.9-43c-0.1-0.4-0.7-0.7-1.9-0.9c-0.8-0.1-1.2-0.3-1.4-0.6
		c-0.2-0.2-0.4-0.9-0.7-2c-0.2-0.9-0.3-1.4-0.2-1.6c0.1-0.2,0.5-0.4,1.1-0.5l6.1-1.4l10.9-2.5l5-1.1c0.6-0.1,1-0.1,1.3,0
		s0.6,0.5,0.9,1.2l3.8,8.5c0.2,0.4,0.3,0.7,0.4,0.9c0.1,0.6-0.3,1.1-1.5,1.3c-1.2,0.3-2.1,0.3-2.6,0.1s-1.1-0.8-1.7-1.9
		c-1.2-1.9-2.1-3.2-2.8-3.9c-0.7-0.7-1.4-1-2-0.8l-0.7,0.1l-1.7,0.4l2.6,11.1l2,8.6L70,178c0.6-0.1,1.1-0.4,1.3-0.7
		c0.2-0.3,0.3-1,0.3-2c-0.1-1.7-0.1-2.7,0-3.1c0.1-0.4,0.3-0.6,0.7-0.7c1.8-0.4,2.9-0.6,3.1-0.5c0.3,0.1,0.5,0.6,0.8,1.7l2.7,11.5
		c0.2,0.7,0.2,1.2,0,1.5s-0.9,0.5-2.1,0.8c-0.8,0.2-1.3,0.2-1.7-0.1c-0.3-0.2-0.8-1-1.3-2.2s-1-1.9-1.3-2.1
		c-0.3-0.2-0.7-0.3-1.2-0.2l-2.7,0.6l1.9,8l3.6,15.7l1.8-0.4c0.3-0.1,0.6-0.2,0.9-0.3c0.6-0.3,1.1-0.7,1.2-1.2
		c0.3-0.7,0.5-2.7,0.8-5.9c0.1-1.4,0.3-2.3,0.6-2.8c0.3-0.5,1-0.8,2-1.1c1.4-0.3,2.2,0,2.5,0.9c0.1,0.3,0.1,0.7,0.1,1.2l0.5,8.1
		c0.1,1.5,0.1,2.4,0,2.7s-0.5,0.6-1.3,0.8l-4.5,1.1L67.7,211.9z M274.1,105.8c0.3,0.1,0.6,0.5,0.9,1.2l3.8,8.5
		c0.2,0.4,0.3,0.7,0.4,0.9c0.1,0.4-0.1,0.8-0.6,1c-0.2,0.1-0.5,0.2-0.8,0.3c-1.2,0.3-2.1,0.3-2.6,0.1c-0.5-0.2-1.1-0.8-1.7-1.9
		c-1.2-1.9-2.1-3.2-2.8-3.9c-0.7-0.7-1.4-1-2-0.8l-2.3,0.5l4.6,19.7l2.3-0.5c0.6-0.1,1.1-0.4,1.3-0.7c0.2-0.3,0.3-1,0.3-2
		c-0.1-1.7-0.1-2.7,0-3.1s0.3-0.6,0.7-0.7c1.8-0.4,2.9-0.6,3.1-0.5c0.3,0.1,0.5,0.6,0.8,1.7l2.7,11.5c0.2,0.7,0.2,1.2,0,1.5
		s-0.9,0.5-2.1,0.8c-0.8,0.2-1.3,0.2-1.7-0.1c-0.3-0.2-0.8-1-1.3-2.2s-1-1.9-1.3-2.1c-0.3-0.2-0.7-0.3-1.2-0.2l-2.7,0.6l5.5,23.7
		l1.8-0.4c1.1-0.3,1.8-0.8,2.1-1.5c0.3-0.7,0.5-2.7,0.8-5.9c0.1-1.4,0.3-2.3,0.6-2.8c0.3-0.5,1-0.8,2-1.1c0.2,0,0.3-0.1,0.4-0.1
		c1.1-0.2,1.8,0.2,2,1c0.1,0.3,0.1,0.7,0.1,1.2l0.5,8.1c0.1,1.5,0.1,2.4,0,2.7s-0.5,0.6-1.3,0.8l-1.3,0.3l-21.7,5
		c-0.6,0.1-1,0.1-1.2-0.1c-0.2-0.2-0.5-1-0.8-2.2c-0.2-0.8,0.1-1.5,0.8-2c1.1-0.8,1.6-1.7,1.4-2.6l-9.9-43c-0.1-0.4-0.7-0.7-1.9-0.9
		c-0.8-0.1-1.2-0.3-1.4-0.6c-0.2-0.2-0.4-0.9-0.7-2c-0.2-0.9-0.3-1.4-0.2-1.6s0.5-0.4,1.1-0.5l22-5.1c0.2-0.1,0.4-0.1,0.6-0.1
		C273.7,105.7,274,105.8,274.1,105.8z M237.9,165.6l-9.5-40.9c-0.2-1-0.5-1.7-0.9-2.1c-0.3-0.4-0.9-0.7-1.8-0.9
		c-0.6-0.1-1-0.3-1.2-0.4c-0.2-0.2-0.3-0.5-0.5-1.1l-0.4-1.8c-0.2-0.7,0.1-1.2,0.9-1.3l16.5-3.8c0.6-0.1,1-0.2,1.3,0
		c0.2,0.1,0.4,0.6,0.6,1.4c0.3,1.2,0.4,2,0.3,2.3c-0.1,0.3-0.3,0.6-0.7,0.7c-1.4,0.6-1.9,1.6-1.5,3.2l9.6,41.4
		c0.2,0.9,0.9,1.4,2,1.7c0.7,0.2,1.2,0.4,1.4,0.6c0.2,0.2,0.4,0.6,0.5,1.3l0.3,1.3c0.2,0.7,0.2,1.2,0.1,1.3c-0.1,0.1-0.5,0.3-1,0.4
		l-16.8,3.9c-0.6,0.1-1,0-1.1-0.5c-0.4-1.7-0.6-2.7-0.5-3.1c0-0.4,0.4-0.8,1-1.1C237.7,167.3,238.1,166.5,237.9,165.6z M69.7,122.7
		c14-44.9,55.9-77.6,105.4-77.6c31.6,0,60.1,13.3,80.2,34.6L69.7,122.7z M216.1,170.1c0.3,1.1,1.1,1.7,2.5,1.7
		c0.7,0,1.2,0.1,1.4,0.3s0.4,0.7,0.6,1.5c0.3,1.3,0.4,2.1,0.2,2.3c-0.1,0.3-0.6,0.5-1.4,0.7l-15.7,3.6c-0.9,0.2-1.5,0.2-1.8-0.1
		s-0.6-1-0.9-2.1c-0.2-0.7-0.2-1.2-0.1-1.4c0.1-0.2,0.4-0.5,1-1c0.8-0.6,1.2-1,1.4-1.3c0.1-0.3,0.2-0.7,0-1.3l-9.6-41.6
		c-0.1-0.6-0.4-1-0.7-1.3s-0.9-0.5-1.8-0.6c-0.6-0.1-1.1-0.6-1.3-1.5c0-0.1-0.1-0.6-0.3-1.5c-0.1-1,0.4-1.6,1.3-1.8l21.5-5
		c0.6-0.1,1.1-0.1,1.4,0c0.3,0.1,0.6,0.6,0.9,1.4c0.1,0.1,0.1,0.3,0.2,0.6l3.3,7.3c0.2,0.5,0.3,0.9,0.4,1.2c0.2,0.7-0.3,1.2-1.4,1.5
		c-1.5,0.3-2.5,0.3-2.9-0.2c-0.5-0.5-1.4-1.7-2.7-3.7c-0.8-1.2-1.5-2-2.1-2.4s-1.4-0.4-2.3-0.2c-0.3,0.1-0.8,0.2-1.5,0.5l4.6,19.7
		l1.8-0.4c0.9-0.2,1.5-0.6,1.8-1.1s0.3-1.3,0.3-2.4c-0.1-1.2,0-2,0.1-2.4s0.8-0.7,2.2-1c0.9-0.2,1.5-0.2,1.7-0.1
		c0.2,0.1,0.4,0.5,0.5,1l2.9,12.5c0.1,0.5,0.1,0.9,0,1.1c-0.1,0.2-0.7,0.4-1.7,0.6c-1.2,0.3-2,0.3-2.4-0.1c-0.4-0.3-0.9-1.2-1.4-2.7
		s-1.6-2.1-3.1-1.7l-1.8,0.4L216.1,170.1z M177.8,179.5l-9.5-40.9c-0.2-1-0.5-1.7-0.9-2.1c-0.3-0.4-0.9-0.7-1.8-0.9
		c-0.6-0.1-1-0.3-1.2-0.4s-0.3-0.5-0.4-1.1l-0.4-1.8c-0.2-0.7,0.1-1.2,0.9-1.3l16.5-3.8c0.6-0.1,1-0.2,1.3,0
		c0.2,0.1,0.4,0.6,0.6,1.4c0.3,1.2,0.4,2,0.3,2.3c-0.1,0.3-0.3,0.6-0.7,0.7c-1.4,0.6-1.9,1.7-1.5,3.2l9.6,41.4
		c0.2,0.9,0.9,1.4,2,1.7c0.7,0.2,1.2,0.4,1.4,0.6c0.2,0.2,0.4,0.6,0.5,1.3l0.3,1.3c0.2,0.7,0.2,1.2,0.1,1.3c-0.1,0.1-0.5,0.2-1,0.4
		l-16.8,3.9c-0.6,0.1-1,0-1.1-0.5c-0.4-1.6-0.6-2.7-0.5-3.1c0-0.4,0.4-0.8,1-1.1C177.5,181.2,178,180.4,177.8,179.5z M145.3,186.8
		l-10.4-44.9l-1.6,0.4c-0.5,0.1-0.8,0.6-1,1.3c-0.2,0.8-0.1,2.7,0.3,5.7c0.1,1.4,0.1,2.2-0.2,2.6c-0.3,0.4-0.9,0.7-1.9,1
		c-1,0.2-1.7,0.3-2,0.1s-0.6-0.6-0.8-1.3c-0.1-0.4-0.2-0.8-0.3-1.2l-1.4-8.1c-0.2-1-0.2-1.6,0.1-2c0.2-0.4,0.9-0.7,2-0.9l25.3-5.9
		c0.7-0.2,1.2-0.2,1.4,0c0.2,0.1,0.5,0.8,0.8,1.9l2.2,7c0.2,0.5,0.3,1.1,0.5,1.7c0.2,0.7,0.2,1.2,0.1,1.6c-0.1,0.4-0.6,0.7-1.5,0.9
		c-1.2,0.3-1.9,0.3-2.3,0.2c-0.4-0.2-0.8-0.8-1.3-2c-0.8-1.9-1.6-3.5-2.3-4.6c-0.7-1.2-1.4-1.7-2.1-1.5l-1,0.2l10.2,44.2
		c0.3,1.3,1,2,2.3,2.2c0.5,0.1,0.9,0.3,1.1,0.5s0.4,0.8,0.6,1.8c0.3,1.2,0.3,1.9,0.2,2.1c-0.2,0.2-0.6,0.5-1.3,0.6l-15.2,3.5
		c-0.6,0.1-1,0.1-1.2-0.1c-0.2-0.2-0.5-0.8-0.7-1.9c-0.3-1.3-0.1-2.2,0.5-2.6c0.6-0.4,1-0.8,1.1-1.1
		C145.5,187.9,145.4,187.4,145.3,186.8z M108.2,194.8c0.2,0.8,0.4,1.3,0.5,1.6c0.2,0.3,0.5,0.5,1.1,0.7c0.7,0.2,1.2,0.8,1.4,1.8
		c0.3,1.3,0.4,2.2,0.2,2.5c-0.2,0.4-0.6,0.6-1.2,0.8l-14.6,3.4c-0.8,0.2-1.4-0.3-1.6-1.5c-0.3-1.1-0.4-1.9-0.4-2.2
		c0-0.4,0.2-0.6,0.5-0.9c1.1-0.8,1.5-1.9,1.2-3.4L86,157c-0.4-1.5-1.1-2.3-2.3-2.3c-0.6-0.1-1-0.2-1.2-0.3s-0.4-0.7-0.6-1.6
		c-0.4-1.8-0.1-2.8,0.8-3l19.1-4.4c3.8-0.9,7.5-0.2,11.1,1.9c3.6,2.2,6,5.6,7.1,10.4c1.6,6.8-0.9,12.1-7.3,15.8
		c6.7-0.1,10.8,3.2,12.3,9.9l1.9,8.2c0.2,0.7,0.5,1.1,1.1,1.4c0.7,0.3,1.2,0.8,1.4,1.7c0.3,1.3,0.4,2.1,0.3,2.4
		c-0.1,0.3-0.5,0.5-1.2,0.7l-9.2,2.1c-1.1,0.3-2.2-0.2-3.2-1.2c-1-1.1-1.7-2.6-2.1-4.4l-3.2-13.9c-0.6-2.7-2.3-3.7-5-3.1l-1.6,0.4
		L108.2,194.8z M280.4,188.3c-14,44.9-55.9,77.6-105.4,77.6c-31.6,0-60.1-13.3-80.2-34.6L280.4,188.3z M175,18.4
		c44.7,0,84.4,21.5,109.5,54.6l-17.1,4C245.1,50.9,212,34.3,175,34.3c-56.5,0-104.1,38.9-117.5,91.3l-17.1,4
		C52.6,66.3,108.3,18.4,175,18.4z M41.7,218.6c-2.9,0.7-5.6,0.3-8.1-1c-0.5-0.3-1.1-0.6-1.6-1c-2-1.5-4.1-3.9-6.1-7.1
		c-2.6-4.1-4.7-9.6-6.3-16.5c-1.5-6.5-2.1-11.9-1.7-16.2c0.3-3.5,1.1-6.4,2.2-8.8c0.2-0.5,0.5-1,0.8-1.5c1.6-2.6,3.7-4.2,6.4-4.9
		c1.7-0.4,3.2-0.3,4.6,0.4c0.5,0.2,0.9,0.3,1.1,0.2c0.3-0.1,0.6-0.5,0.9-1.2c0.3-0.7,0.6-1.1,1-1.1l1.8-0.4c0.4-0.1,0.8,0,1,0.3
		c0.1,0.1,0.1,0.2,0.2,0.3c0.2,0.4,0.5,1.1,0.8,2.1l3.4,10.9c0.1,0.2,0.1,0.4,0.2,0.6c0.2,0.8,0.2,1.4,0,1.8
		c-0.2,0.4-0.7,0.7-1.5,0.9c-0.5,0.1-0.9,0.1-1.3,0.1c-0.4,0-0.7-0.2-1-0.4c-0.5-0.4-1.2-1.6-2-3.5c-2.1-4.8-4-7-5.8-6.6
		c-1.4,0.3-1.8,2.3-0.9,5.9l9,38.8c0.6,2.6,1.6,3.7,3.2,3.3c1.9-0.4,2.5-2.8,1.7-7.2c-0.2-1.3-0.2-2.2,0.1-2.8s1.1-1,2.4-1.3h0.1
		c0.9-0.2,1.6-0.2,2,0.1c0.5,0.3,0.8,0.9,1,2c0.5,2.1,0.5,4,0.1,5.9c-0.2,1-0.6,2-1.2,3C46.9,216.2,44.6,217.9,41.7,218.6z
		 M175,292.6c-44.7,0-84.4-21.5-109.5-54.6l17.1-4c22.3,26.1,55.4,42.7,92.3,42.7c56.5,0,104.1-38.9,117.5-91.3l17.1-4
		C297.5,244.7,241.8,292.6,175,292.6z"/>
	<path class="st0" d="M107.4,165.5l-2.6-11.1c-0.4-1.9-1.1-3.2-2-3.8s-2.1-0.8-3.7-0.4l-1.2,0.3l5.4,23.2l2.2-0.5
		C107.9,172.6,108.5,170.1,107.4,165.5z"/>
</g>
</svg>
