<svg id="Layer_1" data-name="Layer 1" xmlns="http://www.w3.org/2000/svg" viewBox="0 0 1068.43 228.58"><defs><style>.cls-1,.cls-3{fill:#8d241f;}.cls-1,.cls-4,.cls-5,.cls-6,.cls-7,.cls-8,.cls-9{fill-rule:evenodd;}.cls-2,.cls-5{fill:#029f00;}.cls-4{fill:#009fff;}.cls-6{fill:#fce412;}.cls-7{fill:#f4a608;}.cls-8{fill:#e84c23;}.cls-9{fill:#5e226e;}</style></defs><title>nVipani logo SVG</title><path class="cls-1" d="M543.64,138.16c-7.3-5.82-22.12-48.25-29-59.38-14.95-25.91-45.3-26-50.8-24.39-2.26.65,16.29,7.76,23.49,27.9,9.11,21.42,33.79,73,38.36,87.64l30.5.68c6.44-7.78,22-38.58,27.58-48.46,17.83-31.65,39.49-65,62.51-92,7.61-8.9,14.1-14,20.42-17.71,8.38-4.88,16.46-7.2,26.41-12.39-52-1.66-73.63,22.38-93.86,50-10.25,14-19.3,27.41-29.07,43-8.9,14.2-17.6,31.09-26.51,45.08Z"/><path class="cls-2" d="M391.55,67.92h19.66l-2.18,16h.44a36.59,36.59,0,0,1,14.85-13.43,46.54,46.54,0,0,1,21.85-5.14,42,42,0,0,1,14,2.3,27,27,0,0,1,11,7.1A28.19,28.19,0,0,1,477.63,87q2,7.53.44,17.81l-9.18,66.63H449.23l8.52-61.17A36,36,0,0,0,457.42,98a19.17,19.17,0,0,0-3.93-8.3,15.61,15.61,0,0,0-6.88-4.59,27,27,0,0,0-8.74-1.42,34.87,34.87,0,0,0-11.69,2,27.89,27.89,0,0,0-10.05,6.23,35.25,35.25,0,0,0-7.54,10.81,55.94,55.94,0,0,0-4.37,15.51l-7.43,53.31H377.13Z"/><path class="cls-3" d="M661.36,72.87h18.53L666.3,170.5H647.76Zm.61-35a15.58,15.58,0,0,1,5.36-9.57,14.83,14.83,0,0,1,10.09-4,11.48,11.48,0,0,1,9.07,4,11.35,11.35,0,0,1,2.67,9.57,15.59,15.59,0,0,1-5.35,9.58,14.87,14.87,0,0,1-10.1,4A11.65,11.65,0,0,1,662,37.85Z"/><path class="cls-3" d="M699.05,72.87h18.53l-1.85,14h.41a44.63,44.63,0,0,1,16.48-12.15,49,49,0,0,1,19.77-4.32,48,48,0,0,1,20,3.91,36.72,36.72,0,0,1,14.11,10.92,41.32,41.32,0,0,1,7.62,16.37,55.78,55.78,0,0,1,.72,20.08A65,65,0,0,1,788.33,142a59.06,59.06,0,0,1-12.25,16.27A55.18,55.18,0,0,1,738,173a41.44,41.44,0,0,1-19.15-4.43,27.8,27.8,0,0,1-12.57-12h-.41l-10.09,72.09H677.21Zm48.6,14.83A35.84,35.84,0,0,0,734,90.27a37.41,37.41,0,0,0-11.13,7A35.8,35.8,0,0,0,714.91,108a44.73,44.73,0,0,0-4.12,13.7,39.45,39.45,0,0,0,.3,13.7,25.58,25.58,0,0,0,4.85,10.71,24.08,24.08,0,0,0,9.16,7,31.28,31.28,0,0,0,13.08,2.58,35.76,35.76,0,0,0,24.72-9.58,38.06,38.06,0,0,0,7.92-10.71,43.12,43.12,0,0,0,4.23-13.7,39.7,39.7,0,0,0-.31-13.7,25.08,25.08,0,0,0-4.94-10.71,25.44,25.44,0,0,0-9.17-7A30.71,30.71,0,0,0,747.65,87.7Z"/><path class="cls-3" d="M816.45,84.81A61.93,61.93,0,0,1,836.12,74a66.65,66.65,0,0,1,21.11-3.6,53.84,53.84,0,0,1,18.13,2.67,30.05,30.05,0,0,1,11.74,7.21,22.82,22.82,0,0,1,5.77,10.4,33.43,33.43,0,0,1,.61,12.26l-7,49.84c-.55,3.44-1,6.59-1.23,9.48s-.42,5.63-.42,8.24H868.36q.2-3.72.51-7.42t.93-7.41h-.41q-7.64,9.47-16.58,13.38A49.7,49.7,0,0,1,832.72,173a41.66,41.66,0,0,1-12.66-1.86,26.58,26.58,0,0,1-10-5.56,22.06,22.06,0,0,1-6.08-9.16,26.41,26.41,0,0,1-.93-12.67,31.22,31.22,0,0,1,6.39-15.86,39.43,39.43,0,0,1,13.08-10.4,63.78,63.78,0,0,1,17.92-5.77,122.87,122.87,0,0,1,21.11-1.75h13.59l.62-4.12a18,18,0,0,0-.31-7.41,16.48,16.48,0,0,0-10-11.43,25.76,25.76,0,0,0-10.09-1.75,40.42,40.42,0,0,0-9.58,1,42.79,42.79,0,0,0-7.62,2.57,41.8,41.8,0,0,0-6.38,3.6c-2,1.38-3.95,2.68-5.87,3.92Zm46.92,38.73a133.76,133.76,0,0,0-13.64.72,58.36,58.36,0,0,0-13,2.78,29.15,29.15,0,0,0-10.14,5.76,15.27,15.27,0,0,0-5,9.48q-1.23,8.44,3.93,12.15t14.89,3.71a32,32,0,0,0,13.34-2.58,30.3,30.3,0,0,0,9.61-6.69,30.62,30.62,0,0,0,6.1-9.17,36.94,36.94,0,0,0,2.8-10l1-6.17Z"/><path class="cls-3" d="M918.41,72.87h18.53l-2.06,15h.42a34.47,34.47,0,0,1,14-12.66,43.77,43.77,0,0,1,20.6-4.84,39.69,39.69,0,0,1,13.18,2.16,25.46,25.46,0,0,1,10.4,6.69,26.63,26.63,0,0,1,6.08,11.64q1.85,7.11.41,16.79l-8.65,62.82H972.78l8-57.67a33.92,33.92,0,0,0-.3-11.64,18.2,18.2,0,0,0-3.71-7.83A14.64,14.64,0,0,0,970.31,89a25.11,25.11,0,0,0-8.24-1.34,32.77,32.77,0,0,0-11,1.85,26.36,26.36,0,0,0-9.47,5.87,33.24,33.24,0,0,0-7.11,10.2,52.83,52.83,0,0,0-4.12,14.62l-7,50.26H904.81Z"/><path class="cls-3" d="M1028.6,72.87h18.53l-13.59,97.63H1015Zm.62-35a15.52,15.52,0,0,1,5.35-9.57,14.85,14.85,0,0,1,10.09-4,11.48,11.48,0,0,1,9.07,4,11.35,11.35,0,0,1,2.67,9.57,15.59,15.59,0,0,1-5.35,9.58,14.85,14.85,0,0,1-10.09,4,11.64,11.64,0,0,1-11.74-13.6Z"/><path class="cls-4" d="M76.68,0H193S111.09,17.71,66.09,73.15L76.68,0Z"/><path class="cls-5" d="M208,.85,266.2,101.51s-56.33-62-126.84-73.2L208,.85Z"/><path class="cls-6" d="M273,114.94,215,215.73s25.48-79.8-.13-146.45L273,114.94Z"/><path class="cls-7" d="M206.76,228.32l-116.29.26s81.84-17.9,126.71-73.43l-10.42,73.17Z"/><path class="cls-8" d="M75.46,227.76,17,127.23s56.47,61.88,127,72.92L75.46,227.76Z"/><path class="cls-9" d="M10.21,113.83,68,12.9s-25.3,79.86.46,146.45L10.21,113.83Z"/></svg>