<svg xmlns="http://www.w3.org/2000/svg" viewBox="0 0 12.838 7.988"><g transform="translate(-11 -14.9)"><g transform="translate(11 14.9)"><g transform="translate(3.423 0.713)"><g transform="translate(1.07)"><path d="M19.226,20.179A2.018,2.018,0,0,1,17.3,18.04a1.936,1.936,0,1,1,3.851,0A2.018,2.018,0,0,1,19.226,20.179Zm0-3.566a1.354,1.354,0,0,0-1.212,1.426,1.229,1.229,0,1,0,2.425,0A1.354,1.354,0,0,0,19.226,16.613Z" transform="translate(-17.3 -15.9)"/></g><g transform="translate(3.78 3.352)"><path d="M21.1,20.6h.143a2.07,2.07,0,0,1,2.068,2.068v1.5a.357.357,0,0,1-.713,0v-1.5a1.4,1.4,0,0,0-1.355-1.355H21.1Z" transform="translate(-21.1 -20.6)"/></g><g transform="translate(0 3.352)"><path d="M18.011,21.313h-.143a1.4,1.4,0,0,0-1.355,1.355v1.5a.357.357,0,0,1-.713,0v-1.5A2.07,2.07,0,0,1,17.868,20.6h.143Z" transform="translate(-15.8 -20.6)"/></g></g><g transform="translate(7.845)"><g transform="translate(0.856)"><path d="M24.84,18.466a1.741,1.741,0,0,1-1.64-1.783,1.646,1.646,0,1,1,3.281,0A1.741,1.741,0,0,1,24.84,18.466Zm0-2.853a1.081,1.081,0,1,0,.927,1.07A1.028,1.028,0,0,0,24.84,15.613Z" transform="translate(-23.2 -14.9)"/></g><g transform="translate(3.138 2.71)"><path d="M26.4,18.7h.143a1.736,1.736,0,0,1,1.712,1.712v1.212a.357.357,0,1,1-.713,0V20.412a.975.975,0,0,0-1-1H26.4Z" transform="translate(-26.4 -18.7)"/></g><g transform="translate(0 2.71)"><path d="M23.854,19.413h-.143a.975.975,0,0,0-1,1,.357.357,0,0,1-.713,0A1.736,1.736,0,0,1,23.712,18.7h.143Z" transform="translate(-22 -18.7)"/></g></g><g transform="translate(0.856)"><path d="M13.84,18.466a1.741,1.741,0,0,1-1.64-1.783,1.646,1.646,0,1,1,3.281,0A1.741,1.741,0,0,1,13.84,18.466Zm0-2.853a1.081,1.081,0,0,0,0,2.14,1.081,1.081,0,0,0,0-2.14Z" transform="translate(-12.2 -14.9)"/></g><g transform="translate(3.138 2.71)"><path d="M15.4,18.7h.143a1.736,1.736,0,0,1,1.712,1.712.357.357,0,0,1-.713,0,.975.975,0,0,0-1-1H15.4V18.7Z" transform="translate(-15.4 -18.7)"/></g><g transform="translate(0 2.71)"><path d="M12.854,19.413h-.143a.975.975,0,0,0-1,1v1.212a.357.357,0,0,1-.713,0V20.412A1.736,1.736,0,0,1,12.712,18.7h.143Z" transform="translate(-11 -18.7)"/></g></g></g></svg>