<svg xmlns="http://www.w3.org/2000/svg" xmlns:xlink="http://www.w3.org/1999/xlink" width="29.474" height="27.641" viewBox="0 0 29.474 27.641"><defs><style>.a{fill:url(#a);}</style><linearGradient id="a" x1="0.5" x2="0.5" y2="1" gradientUnits="objectBoundingBox"><stop offset="0" stop-color="#4e76cb"/><stop offset="1" stop-color="#00be92"/></linearGradient></defs><g transform="translate(0 -15.916)"><g transform="translate(0 15.916)"><path class="a" d="M13.873,22.834h0V20.991a2.609,2.609,0,1,0-1.727-.007v1.849H8.5A4.339,4.339,0,0,0,0,23.74l0,.028V39.287a4.306,4.306,0,0,0,4.331,4.271H29.474V22.834Zm-1.737-4.308a.883.883,0,1,1,.883.883A.884.884,0,0,1,12.137,18.526Zm-10.41,5.3a2.613,2.613,0,0,1,5.168-.3,2.582,2.582,0,0,1,.048.5L6.936,35.778a4.329,4.329,0,0,0-5.209-.011Zm26.02,18H4.331a2.578,2.578,0,0,1-2.6-2.544V39.04a2.607,2.607,0,0,1,5.207.19H8.661l.01-14.67h3.476v1.468h1.727V24.561H27.747Z" transform="translate(0 -15.916)"/></g><g transform="translate(12.146 28.053)"><rect class="a" width="1.727" height="1.727"/></g><g transform="translate(12.146 31.478)"><rect class="a" width="1.727" height="1.727"/></g><g transform="translate(12.146 34.903)"><rect class="a" width="1.727" height="1.727"/></g><g transform="translate(12.146 38.328)"><rect class="a" width="1.727" height="1.727"/></g><g transform="translate(20.829 28.178)"><path class="a" d="M364.443,228.916a2.609,2.609,0,0,0-.873,5.069v6.166H365.3v-6.16a2.609,2.609,0,0,0-.854-5.075Zm0,3.492a.883.883,0,1,1,.883-.883A.884.884,0,0,1,364.443,232.408Z" transform="translate(-361.833 -228.916)"/></g><g transform="translate(15.562 38.328)"><rect class="a" width="1.727" height="1.727"/></g><g transform="translate(18.978 38.328)"><rect class="a" width="1.727" height="1.727"/></g></g></svg>