<svg xmlns="http://www.w3.org/2000/svg" xmlns:xlink="http://www.w3.org/1999/xlink" width="139.602" height="139.602" viewBox="0 0 139.602 139.602"><defs><style>.a{fill:#fff;}.b{fill:#e26372;stroke:#e26372;}.c{filter:url(#a);}</style><filter id="a" x="0" y="0" width="139.602" height="139.602" filterUnits="userSpaceOnUse"><feOffset dy="3" input="SourceAlpha"/><feGaussianBlur stdDeviation="12.5" result="b"/><feFlood flood-opacity="0.502"/><feComposite operator="in" in2="b"/><feComposite in="SourceGraphic"/></filter></defs><g transform="translate(43.938 42.115)"><g class="c" transform="matrix(1, 0, 0, 1, -43.94, -42.11)"><circle class="a" cx="32.301" cy="32.301" r="32.301" transform="translate(37.5 34.5)"/></g><g transform="translate(11.5 13.3)"><g transform="translate(9.271 7.416)"><path class="b" d="M22.057,27.813a5.057,5.057,0,1,1,5.057-5.057A4.966,4.966,0,0,1,22.057,27.813Zm0-8.428a3.371,3.371,0,1,0,3.371,3.371A3.381,3.381,0,0,0,22.057,19.386Z" transform="translate(-17 -17.7)"/></g><path class="b" d="M37.626,35.886h-23.6A2.592,2.592,0,0,1,11.5,33.358V19.537a2.592,2.592,0,0,1,2.528-2.528h4.045a.8.8,0,0,0,.843-.843v-.337A2.592,2.592,0,0,1,21.445,13.3h8.933a2.592,2.592,0,0,1,2.528,2.528v.337a.8.8,0,0,0,.843.843h3.877a2.592,2.592,0,0,1,2.528,2.528V33.358A2.592,2.592,0,0,1,37.626,35.886Zm-23.6-17.193a.8.8,0,0,0-.843.843V33.358a.8.8,0,0,0,.843.843h23.6a.8.8,0,0,0,.843-.843V19.537a.8.8,0,0,0-.843-.843H33.581a2.592,2.592,0,0,1-2.528-2.528v-.337a.8.8,0,0,0-.843-.843H21.276a.8.8,0,0,0-.843.843v.337a2.592,2.592,0,0,1-2.528,2.528Z" transform="translate(-11.5 -13.3)"/></g></g></svg>