<svg xmlns="http://www.w3.org/2000/svg" width="14.56" height="22.829" viewBox="0 0 14.56 22.829"><defs><style>.a{fill:#fff;}</style></defs><g transform="translate(-72.806)"><path class="a" d="M87.22,5.172a.5.5,0,0,0-.373-.146H84.075a5.612,5.612,0,0,0-1.038-2.335h3.778a.5.5,0,0,0,.519-.519V.519A.5.5,0,0,0,86.814,0H73.325a.5.5,0,0,0-.519.519V2.675a.526.526,0,0,0,.519.519h2.351q3.421,0,4.345,1.832h-6.7a.5.5,0,0,0-.519.519V7.2a.5.5,0,0,0,.519.519h6.923a3.168,3.168,0,0,1-1.662,2.027,7.317,7.317,0,0,1-3.445.7H73.325a.526.526,0,0,0-.519.519v2.059a.485.485,0,0,0,.146.357q3.113,3.307,8.074,9.258a.478.478,0,0,0,.405.195h3.162a.47.47,0,0,0,.47-.292A.443.443,0,0,0,85,21.985q-4.734-5.8-7.442-8.69a8.223,8.223,0,0,0,4.475-1.783,6.062,6.062,0,0,0,2.092-3.794h2.724a.5.5,0,0,0,.519-.519V5.545A.5.5,0,0,0,87.22,5.172Z" transform="translate(0 0)"/></g></svg>