<svg xmlns="http://www.w3.org/2000/svg" width="29.199" height="32.053" viewBox="0 0 29.199 32.053"><defs><style>.a{fill:#ed9b00;}</style></defs><g transform="translate(0)"><path class="a" d="M51.051,5.1A4.163,4.163,0,0,1,46.893.941V0h-19V.941A4.163,4.163,0,0,1,23.734,5.1h-.941v6.256a21.966,21.966,0,0,0,14.27,20.574l.33.123.33-.123a21.966,21.966,0,0,0,14.27-20.574V5.1Zm-.941,6.256h0A20.085,20.085,0,0,1,37.392,30.04,20.085,20.085,0,0,1,24.675,11.356V6.908A6.055,6.055,0,0,0,29.7,1.882H45.084A6.055,6.055,0,0,0,50.11,6.908v4.448Z" transform="translate(-22.793)"/></g><g transform="translate(6.41 8.839)"><path class="a" d="M137.57,141.187l-6.228,6.228-2.169-2.169-3.991,3.992,6.16,6.16,10.219-10.219Zm-9.727,8.051,1.33-1.33,2.169,2.169,6.228-6.228,1.33,1.33-7.558,7.558Z" transform="translate(-125.182 -141.187)"/></g></svg>