<svg xmlns="http://www.w3.org/2000/svg" width="17.661" height="11.172" viewBox="0 0 17.661 11.172"><g transform="translate(0 0)"><g transform="translate(0 0)"><g transform="translate(0 0)"><path d="M16.425,98.8l-.457-1.829a.277.277,0,0,0,.219-.27V96.4a1.163,1.163,0,0,0-1.161-1.161H12.942v-.608a.572.572,0,0,0-.571-.572H1.751a.572.572,0,0,0-.571.572v5.014a.277.277,0,1,0,.553,0V94.633a.018.018,0,0,1,.018-.018H12.37a.018.018,0,0,1,.018.018v5.014a.277.277,0,0,0,.553,0v-.313h3.264a.9.9,0,0,1,.859.627H16.2a.277.277,0,0,0-.277.277v.59a.867.867,0,0,0,.866.866h.313v1.217h-.723a1.751,1.751,0,0,0-3.31,0h-.133v-2.083a.277.277,0,0,0-.553,0v2.083H6.651a1.751,1.751,0,0,0-3.31,0H1.751a.018.018,0,0,1-.018-.018v-.608h1.2a.277.277,0,0,0,0-.553H.277a.277.277,0,0,0,0,.553h.9v.608a.572.572,0,0,0,.571.572H3.245c0,.006,0,.012,0,.018a1.751,1.751,0,0,0,3.5,0c0-.006,0-.012,0-.018h6.232c0,.006,0,.012,0,.018a1.751,1.751,0,0,0,3.5,0c0-.006,0-.012,0-.018h.9a.277.277,0,0,0,.277-.277v-2.95A1.459,1.459,0,0,0,16.425,98.8Zm-3.483-3h2.083a.609.609,0,0,1,.608.608v.018H12.942Zm0,2.986V96.975H15.4l.452,1.807ZM5,104.681a1.2,1.2,0,1,1,1.2-1.2A1.2,1.2,0,0,1,5,104.681Zm9.734,0a1.2,1.2,0,1,1,1.2-1.2A1.2,1.2,0,0,1,14.73,104.681Zm2.378-3.54h-.313a.314.314,0,0,1-.313-.313v-.313h.627v.627Z" transform="translate(0 -94.062)"/></g></g><g transform="translate(4.424 8.849)"><g transform="translate(0 0)"><path d="M128.839,350.6a.572.572,0,1,0,.572.572A.572.572,0,0,0,128.839,350.6Z" transform="translate(-128.267 -350.597)"/></g></g><g transform="translate(14.158 8.849)"><g transform="translate(0 0)"><path d="M411.026,350.6a.572.572,0,1,0,.572.572A.572.572,0,0,0,411.026,350.6Z" transform="translate(-410.455 -350.597)"/></g></g><g transform="translate(7.079 7.669)"><g transform="translate(0 0)"><path d="M209.633,316.393H205.5a.277.277,0,1,0,0,.553h4.13a.277.277,0,1,0,0-.553Z" transform="translate(-205.227 -316.393)"/></g></g><g transform="translate(0.59 6.489)"><g transform="translate(0 0)"><path d="M20.918,282.188h-3.54a.277.277,0,1,0,0,.553h3.54a.277.277,0,1,0,0-.553Z" transform="translate(-17.102 -282.188)"/></g></g><g transform="translate(5.014 2.655)"><g transform="translate(0 0)"><path d="M149.971,171.1a.277.277,0,0,0-.391,0l-2.459,2.459-1.279-1.279a.277.277,0,0,0-.391.391l1.475,1.475a.277.277,0,0,0,.391,0l2.655-2.655A.277.277,0,0,0,149.971,171.1Z" transform="translate(-145.37 -171.023)"/></g></g></g></svg>