<svg xmlns="http://www.w3.org/2000/svg" width="28.171" height="32.053" viewBox="0 0 28.171 32.053"><defs><style>.a{fill:#f20000;}</style></defs><path class="a" d="M20.148,21.213a4.689,4.689,0,0,0,2.469,1.307,4.7,4.7,0,0,0,4.615,3.836h.939V16.345A6.783,6.783,0,0,0,21.95,9.462a6.571,6.571,0,0,0-6.859,5.625H14.086a2.82,2.82,0,0,1-2.817-2.817V10.392a4.7,4.7,0,0,0-.094-.939h1.033a4.727,4.727,0,0,0,0-9.453h-.389l-.275.275a5.438,5.438,0,0,1-3.87,1.6H4.7A2.82,2.82,0,0,0,1.878,4.7a2.885,2.885,0,0,0,.495,1.617A4.7,4.7,0,0,0,0,10.392v.938H2.469A10.161,10.161,0,0,0,0,18a10.309,10.309,0,0,0,7.168,9.825L5.054,32.053H15.605l-2.114-4.229A10.312,10.312,0,0,0,20.148,21.213Zm.511-3.308V16.026a.939.939,0,1,1,1.878,0V20.56A2.822,2.822,0,0,1,20.659,17.9Zm1.193-6.567a4.927,4.927,0,0,1,4.441,5.008v7.972a2.822,2.822,0,0,1-1.878-2.656V16.026a2.817,2.817,0,0,0-5.473-.939H17A4.7,4.7,0,0,1,21.852,11.338ZM4.7,3.756H7.674A7.3,7.3,0,0,0,12.558,1.9a2.822,2.822,0,0,1,2.467,2.8,2.887,2.887,0,0,1-2.817,2.88H10.327A4.691,4.691,0,0,0,6.573,5.7H4.7a1,1,0,0,1-.939-1A.94.94,0,0,1,4.7,3.756Zm-.939,3.98V9.453H2.039A2.831,2.831,0,0,1,3.756,7.736Zm8.81,22.438H8.093l.973-1.946a10.265,10.265,0,0,0,1.17.067h.189a10.261,10.261,0,0,0,1.169-.067Zm-2.142-3.756h-.189A8.4,8.4,0,0,1,1.878,18a8.3,8.3,0,0,1,2.448-5.909l1.309-1.308V7.575h.939A2.82,2.82,0,0,1,9.39,10.392V12.27a4.7,4.7,0,0,0,4.7,4.7h4.7V18A8.4,8.4,0,0,1,10.424,26.418Zm0,0" transform="translate(0)"/><path class="a" d="M100.665,280.891a2.491,2.491,0,0,0-1.737.692,2.491,2.491,0,0,0-1.737-.692,2.724,2.724,0,0,0-2.676,2.824c0,1.906,1.666,3,3.8,4.845l.615.533.615-.533c1.9-1.648,3.8-2.886,3.8-4.845A2.724,2.724,0,0,0,100.665,280.891Zm-1.737,5.724c-1.563-1.323-2.534-2.1-2.534-2.9a.858.858,0,0,1,.8-.946c.4,0,.648.375.783.69l.244.569h1.42l.244-.57c.135-.315.38-.689.783-.689a.858.858,0,0,1,.8.946C101.463,284.615,100.114,285.61,98.928,286.615Zm0,0" transform="translate(-88.599 -263.306)"/></svg>