<svg xmlns="http://www.w3.org/2000/svg" width="24.603" height="23.817" viewBox="0 0 24.603 23.817"><defs><style>.a{fill:#fff;}</style></defs><g transform="translate(-2.7 -2.614)"><g transform="translate(0 0)"><path class="a" d="M20.726,7.279a2.048,2.048,0,1,0-2.9,0A2.047,2.047,0,0,0,20.726,7.279ZM16,12.769H18.87a.814.814,0,0,0,.982-.116l2.9-2.872a.809.809,0,0,0,.077-.116c.069-.061.147-.107.213-.172a5.244,5.244,0,0,0,0-7.467,5.367,5.367,0,0,0-7.539,0,5.244,5.244,0,0,0,0,7.467c.066.066.144.111.213.172a.809.809,0,0,0,.077.116l1.389,1.376H15.949v.03a3.684,3.684,0,0,0-3.636,3.682A3.644,3.644,0,0,0,16,18.5h3.277a2.07,2.07,0,0,1,2.048,2.074,2.048,2.048,0,0,1-2.048,2.048H7.368L8.81,21.2a.766.766,0,0,0,.077-.116c.069-.061.147-.107.213-.172a5.244,5.244,0,0,0,0-7.467,5.367,5.367,0,0,0-7.539,0,5.244,5.244,0,0,0,0,7.467c.066.066.144.111.213.172a.766.766,0,0,0,.077.116l2.9,2.872a.814.814,0,0,0,.8.2H19.33v0a3.68,3.68,0,0,0,.039-7.359v-.009l-3.469.016a2.044,2.044,0,0,1-1.946-2.037A2.091,2.091,0,0,1,16,12.769Zm.67-4.416h0a.039.039,0,0,0-.009-.007,3.631,3.631,0,0,1,0-5.17,3.717,3.717,0,0,1,5.219,0,3.631,3.631,0,0,1,0,5.17c-.009.009-.02.014-.029.023l0,0-2.583,2.558-2.6-2.576ZM5.331,22.346l-2.6-2.577h0l-.009-.007a3.631,3.631,0,0,1,0-5.17,3.717,3.717,0,0,1,5.22,0,3.631,3.631,0,0,1,0,5.17c-.009.009-.02.015-.029.024l0,0L5.331,22.346ZM3.9,15.853a2.048,2.048,0,1,0,2.9,0A2.047,2.047,0,0,0,3.9,15.853Z" transform="translate(2.7 2.134)"/></g></g></svg>